<svg width="112" height="20" viewBox="0 0 112 20" fill="none" xmlns="http://www.w3.org/2000/svg">
<g clip-path="url(#clip0_1_7)">
<path d="M5.7114 4.70217C6.65369 4.70217 7.49982 4.92332 8.2498 5.36562C9.0094 5.80791 9.60554 6.42809 10.0382 7.22615C10.4709 8.01459 10.6872 8.9088 10.6872 9.90878C10.6872 10.9088 10.4709 11.8078 10.0382 12.6058C9.60554 13.3943 9.0094 14.0096 8.2498 14.4519C7.49982 14.8942 6.65369 15.1154 5.7114 15.1154C4.76912 15.1154 3.91337 14.8942 3.14416 14.4519C2.38456 14.0096 1.78842 13.3943 1.35574 12.6058C0.923055 11.8078 0.706714 10.9088 0.706714 9.90878C0.706714 8.9088 0.923055 8.01459 1.35574 7.22615C1.78842 6.42809 2.38456 5.80791 3.14416 5.36562C3.91337 4.92332 4.76912 4.70217 5.7114 4.70217ZM5.7114 5.9281C5.0095 5.9281 4.3797 6.09156 3.82202 6.41847C3.27396 6.73577 2.84128 7.1973 2.52398 7.80306C2.21629 8.3992 2.06245 9.1011 2.06245 9.90878C2.06245 10.7068 2.21629 11.4087 2.52398 12.0145C2.84128 12.6202 3.27396 13.0866 3.82202 13.4135C4.3797 13.7308 5.0095 13.8894 5.7114 13.8894C6.40369 13.8894 7.02387 13.726 7.57193 13.3991C8.12961 13.0722 8.56229 12.6106 8.86998 12.0145C9.18728 11.4087 9.34593 10.7068 9.34593 9.90878C9.34593 9.1011 9.18728 8.3992 8.86998 7.80306C8.56229 7.1973 8.12961 6.73577 7.57193 6.41847C7.02387 6.09156 6.40369 5.9281 5.7114 5.9281ZM21.7785 12.3606C21.7785 12.8414 21.6632 13.2885 21.4324 13.702C21.2016 14.1154 20.8507 14.4519 20.3795 14.7115C19.9084 14.9712 19.3267 15.101 18.6344 15.101C17.9613 15.101 17.3604 14.9808 16.8316 14.7404C16.3123 14.4904 15.8941 14.1539 15.5768 13.7308C15.2691 13.2981 15.0912 12.8077 15.0431 12.2597H16.4421C16.471 12.5481 16.5671 12.8318 16.7306 13.1106C16.9037 13.3798 17.144 13.6058 17.4517 13.7885C17.769 13.9616 18.1488 14.0481 18.5911 14.0481C19.168 14.0481 19.6103 13.8943 19.918 13.5866C20.2257 13.2789 20.3795 12.8847 20.3795 12.4039C20.3795 11.9905 20.269 11.6539 20.0478 11.3943C19.8363 11.1347 19.5719 10.9328 19.2546 10.7886C18.9373 10.6347 18.5046 10.4713 17.9565 10.2982C17.3123 10.0867 16.7931 9.88955 16.3989 9.70686C16.0143 9.51455 15.6825 9.23091 15.4037 8.85592C15.1345 8.48093 14.9999 7.98574 14.9999 7.37037C14.9999 6.84154 15.1249 6.37521 15.3749 5.97137C15.6345 5.56753 15.9998 5.25504 16.471 5.03389C16.9517 4.81274 17.5142 4.70217 18.1584 4.70217C19.1584 4.70217 19.9517 4.94736 20.5382 5.43773C21.1247 5.91849 21.4661 6.53386 21.5622 7.28384H20.1488C20.0719 6.88 19.8651 6.52424 19.5286 6.21656C19.1921 5.90887 18.7354 5.75503 18.1584 5.75503C17.6296 5.75503 17.2065 5.89445 16.8892 6.17329C16.5719 6.44251 16.4133 6.82712 16.4133 7.32711C16.4133 7.72133 16.5143 8.04344 16.7162 8.29343C16.9277 8.53381 17.1873 8.72611 17.495 8.87034C17.8027 9.00495 18.2257 9.15879 18.7642 9.33187C19.418 9.5434 19.9421 9.74532 20.3363 9.93762C20.7401 10.1299 21.0815 10.4232 21.3603 10.8174C21.6391 11.202 21.7785 11.7164 21.7785 12.3606ZM32.8604 12.3606C32.8604 12.8414 32.745 13.2885 32.5142 13.702C32.2835 14.1154 31.9325 14.4519 31.4614 14.7115C30.9902 14.9712 30.4085 15.101 29.7162 15.101C29.0432 15.101 28.4422 14.9808 27.9134 14.7404C27.3942 14.4904 26.9759 14.1539 26.6586 13.7308C26.3509 13.2981 26.1731 12.8077 26.125 12.2597H27.524C27.5528 12.5481 27.649 12.8318 27.8124 13.1106C27.9855 13.3798 28.2259 13.6058 28.5336 13.7885C28.8509 13.9616 29.2307 14.0481 29.673 14.0481C30.2499 14.0481 30.6922 13.8943 30.9999 13.5866C31.3075 13.2789 31.4614 12.8847 31.4614 12.4039C31.4614 11.9905 31.3508 11.6539 31.1297 11.3943C30.9181 11.1347 30.6537 10.9328 30.3364 10.7886C30.0191 10.6347 29.5864 10.4713 29.0384 10.2982C28.3942 10.0867 27.8749 9.88955 27.4807 9.70686C27.0961 9.51455 26.7644 9.23091 26.4855 8.85592C26.2163 8.48093 26.0817 7.98574 26.0817 7.37037C26.0817 6.84154 26.2067 6.37521 26.4567 5.97137C26.7163 5.56753 27.0817 5.25504 27.5528 5.03389C28.0336 4.81274 28.5961 4.70217 29.2403 4.70217C30.2403 4.70217 31.0335 4.94736 31.62 5.43773C32.2066 5.91849 32.5479 6.53386 32.644 7.28384H31.2306C31.1537 6.88 30.947 6.52424 30.6104 6.21656C30.2739 5.90887 29.8172 5.75503 29.2403 5.75503C28.7115 5.75503 28.2884 5.89445 27.9711 6.17329C27.6538 6.44251 27.4951 6.82712 27.4951 7.32711C27.4951 7.72133 27.5961 8.04344 27.798 8.29343C28.0095 8.53381 28.2692 8.72611 28.5768 8.87034C28.8845 9.00495 29.3076 9.15879 29.846 9.33187C30.4999 9.5434 31.0239 9.74532 31.4181 9.93762C31.822 10.1299 32.1633 10.4232 32.4421 10.8174C32.721 11.202 32.8604 11.7164 32.8604 12.3606ZM43.9567 4.80313V6.76462H39.7741V9.00014H43.0048V10.8751H39.7741V15H37.3078V4.80313H43.9567ZM50.5021 4.80313V10.6876C50.5021 11.3607 50.6511 11.8751 50.9492 12.2308C51.2569 12.5866 51.6992 12.7645 52.2761 12.7645C52.853 12.7645 53.2905 12.5866 53.5886 12.2308C53.8962 11.8751 54.0501 11.3607 54.0501 10.6876V4.80313H56.5164V10.6876C56.5164 11.6491 56.3289 12.4616 55.9539 13.125C55.5789 13.7789 55.0645 14.2741 54.4107 14.6106C53.7664 14.9375 53.0357 15.101 52.2184 15.101C51.4011 15.101 50.68 14.9375 50.055 14.6106C49.43 14.2837 48.9396 13.7885 48.5839 13.125C48.2281 12.4616 48.0502 11.6491 48.0502 10.6876V4.80313H50.5021ZM70.1064 15H67.6401L63.5152 8.74053V15H61.0489V4.80313H63.5152L67.6401 11.1203V4.80313H70.1064V15ZM83.8671 9.87993C83.8671 10.8799 83.6507 11.7693 83.218 12.5481C82.795 13.3173 82.1796 13.9183 81.3719 14.351C80.5739 14.7837 79.6316 15 78.5451 15H74.6942V4.80313H78.5451C79.6412 4.80313 80.5883 5.01466 81.3863 5.43773C82.1844 5.8608 82.795 6.45694 83.218 7.22615C83.6507 7.99536 83.8671 8.87995 83.8671 9.87993ZM78.3287 12.7933C79.2902 12.7933 80.0354 12.5385 80.5642 12.0289C81.1027 11.5193 81.3719 10.803 81.3719 9.87993C81.3719 8.95688 81.1027 8.24055 80.5642 7.73094C80.0354 7.22134 79.2902 6.96654 78.3287 6.96654H77.1605V12.7933H78.3287Z" fill="#F02E65"/>
<path fill-rule="evenodd" clip-rule="evenodd" d="M109.645 13.4491C109.645 13.4491 112 11.8712 112 8.75718C112 4.12264 106.989 2.40653 104.294 2.45347C101.598 2.50042 100.794 3.19677 100.794 3.19677C100.794 3.19677 97.9897 1.66844 97.4735 1.83014C97.0584 1.83014 97.3192 2.50563 97.4841 2.74818C97.6491 2.99334 98.4501 4.3365 98.4501 4.3365C98.4501 4.3365 96.771 6.03435 96.6459 7.148C96.6459 7.12975 94.6209 7.14279 94.6209 7.14279L94.6049 11.3366L96.6326 11.347C96.6326 11.347 97.8088 13.0188 98.5539 13.3239C98.5539 13.3448 97.9099 15.0583 97.9099 15.0583C97.9099 15.0583 97.6012 15.5851 98.1574 15.7885C98.7162 15.992 100.174 16.5918 100.794 16.7744C101.414 16.957 101.505 16.5423 101.505 16.5423L102.12 15.2408L106.138 15.2487L106.752 16.5892C106.752 16.5892 106.87 17.2099 107.697 16.8657C108.525 16.5214 109.429 16.1146 110.113 15.7677C110.795 15.4234 110.345 14.7818 110.345 14.7818L109.645 13.4491Z" fill="url(#paint0_linear_1_7)"/>
</g>
<defs>
<linearGradient id="paint0_linear_1_7" x1="103.302" y1="1.81816" x2="103.302" y2="16.9697" gradientUnits="userSpaceOnUse">
<stop stop-color="#F02E65"/>
<stop offset="1" stop-color="#F02E65" stop-opacity="0.8"/>
</linearGradient>
<clipPath id="clip0_1_7">
<rect width="112" height="20" fill="white"/>
</clipPath>
</defs>
</svg>
